<svg xmlns="http://www.w3.org/2000/svg" width="512" height="512" viewBox="0 0 512 512"><g transform="translate(-1118 756.268)"><rect width="512" height="512" transform="translate(1118 -756.268)" fill="rgba(255,255,255,0)"/><path d="M93.533,110.651q5.752-11.5,11.5-22.87t10.408-21.226q4.656-9.86,7.943-17.666t3.834-12.462a18,18,0,0,0-.822-8.491,12.192,12.192,0,0,0-4.519-5.752,25.1,25.1,0,0,0-7.395-3.424,41.775,41.775,0,0,0-9.449-1.506,159.638,159.638,0,0,0-21.5.411,166.344,166.344,0,0,0-23.965,3.561,74.4,74.4,0,0,0-19.857,7.258q-8.354,4.656-8.9,11.5a12.189,12.189,0,0,0,1.369,6.847,13.388,13.388,0,0,0,5.067,4.656q3.7,2.191,11.092,1.643a23.762,23.762,0,0,0,3.287-.274l4.108-.685q2.465-.411,5.752-1.232L48.067,69.02q-3.834,5.478-8.217,6.573a20.152,20.152,0,0,1-7.943.548,68.2,68.2,0,0,1-7.532-1.917,50.128,50.128,0,0,1-11.229-4.93,32.108,32.108,0,0,1-9.723-8.9Q-.685,54.778.137,46.287A32.579,32.579,0,0,1,8.627,28.073q7.395-8.354,20.679-14.379T61.077,4.382A240.056,240.056,0,0,1,102.845,1.1q17.529,0,27.937,3.7t15.2,9.586a20.454,20.454,0,0,1,4.656,13.694A45.152,45.152,0,0,1,147.215,44.1q-1.643,3.834-4.793,10.545T134.89,70.252q-4.382,8.9-9.312,19.583t-9.86,22.185q7.395.548,13.557,1.369T139,114.759q4.108,1.1,2.739,3.561a31.367,31.367,0,0,1-4.793,7.395,12.813,12.813,0,0,1-5.067,3.424,16.075,16.075,0,0,1-6.026.822q-3.287-.137-7.395-.411-2.465,0-4.93-.137t-5.2-.411q-5.2,12.325-10,24.376t-8.764,22.87Q85.59,187.065,82.577,196.1a114.088,114.088,0,0,0-4.108,15.064Q76.825,219.658,76,227.053q-.548,6.3-.548,13.147t2.191,10.955q-5.752,1.643-10,2.739t-7.258,1.643l-5.478,1.369q-7.669,1.917-10.819-.411T42.316,245.4q.548-6.026,1.78-13.557a165.345,165.345,0,0,1,3.834-16.981q2.6-9.449,6.847-21.089T65.6,167.893q3.834-8.217,8.764-18.214t10.408-21.5a223.553,223.553,0,0,0-26.019,1.643q-7.669,1.1-15.064,2.465-6.3,1.369-13.557,3.15T16.57,139.409a15.121,15.121,0,0,1-.959-4.382,20.161,20.161,0,0,1,.137-4.108,28.745,28.745,0,0,1,.822-3.834,17.335,17.335,0,0,1,1.643-3.834,62.989,62.989,0,0,1,5.2-8.217q12.873-1.643,24.65-2.465T68.883,111.2q10.682-.548,19.994-.548a7.033,7.033,0,0,1,2.328-.137A16.8,16.8,0,0,0,93.533,110.651ZM213.222,45.739a16.152,16.152,0,0,1-3.15,5.889,20.768,20.768,0,0,1-5.2,4.656,16.893,16.893,0,0,1-5.889,2.328,5.646,5.646,0,0,1-4.93-1.1q-5.752-4.382-6.026-9.449a16.418,16.418,0,0,1,2.465-9.586,27.572,27.572,0,0,1,6.847-7.669q4.108-3.15,7.121-3.7a5.768,5.768,0,0,1,5.067,1.232A11.388,11.388,0,0,1,212.674,33a20.169,20.169,0,0,1,1.233,6.436A19.342,19.342,0,0,1,213.222,45.739Zm-37.8,58.338q1.369-1.643,5.2-2.739a71.947,71.947,0,0,1,7.943-1.78,60.946,60.946,0,0,1,7.532-.822,13.566,13.566,0,0,1,3.971.137q.274.274-1.369,5.752T194.6,117.5q-2.465,7.395-5.2,15.2t-4.108,12.736q-1.369,4.93-3.287,11.092t-3.424,12.051a77.792,77.792,0,0,0-2.054,11.092q-.548,5.2.822,7.943a10.744,10.744,0,0,0,3.013,4.519,5.814,5.814,0,0,0,3.561,1.233q5.478,0,13.831-6.026a154.73,154.73,0,0,0,16.981-14.379q8.627-8.354,16.022-16.981a173.342,173.342,0,0,0,10.956-13.831,10.515,10.515,0,0,1,4.519-3.561,3.97,3.97,0,0,1,3.834.274,4.431,4.431,0,0,1,1.643,3.561,10.622,10.622,0,0,1-1.78,5.752,145.307,145.307,0,0,1-12.873,18.214,270.43,270.43,0,0,1-18.077,20.268,166.238,166.238,0,0,1-18.761,16.57q-9.175,6.847-14.927,7.121a21.349,21.349,0,0,1-9.175-1.506,28.946,28.946,0,0,1-8.217-4.93,28.315,28.315,0,0,1-6.162-7.4,19.852,19.852,0,0,1-2.739-8.9,105.362,105.362,0,0,1,0-18.761A233.59,233.59,0,0,1,162,144.476a199.923,199.923,0,0,1,5.615-23.691Q171.043,109.555,175.425,104.077Zm93.122,93.67a7.514,7.514,0,0,0,4.245,1.1,13.318,13.318,0,0,0,5.2-1.1,19.876,19.876,0,0,0,4.93-3.013,11.2,11.2,0,0,0,3.424-4.93q1.1-3.013,0-8.627a81.614,81.614,0,0,0-3.424-12.051q-2.328-6.436-5.067-13.01T273.2,144.065q-1.644-4.108-2.739-7.669-1.1-3.013-2.054-5.889a34.855,34.855,0,0,0-1.506-3.971q-1.369,2.191-4.793,7.121t-7.395,10.271q-3.971,5.341-7.532,9.86t-4.93,6.162a8.181,8.181,0,0,1-4.245,2.876,3.741,3.741,0,0,1-3.424-.822,4.959,4.959,0,0,1-1.506-3.561q-.137-2.328,2.054-5.615,1.643-2.191,4.93-6.984t6.573-9.86q3.287-5.067,6.026-9.038a34.259,34.259,0,0,0,3.013-4.793q.548-2.191-1.506-5.752a10.121,10.121,0,0,1-.685-8.217,28.61,28.61,0,0,1,4.93-8.9,50.514,50.514,0,0,1,9.038-9.175,39.881,39.881,0,0,1,10.682-6.162q5.478-2.054,9.86.137a23.594,23.594,0,0,1,5.752,4.793,6.187,6.187,0,0,1,1.643,5.341q-.548,1.369-1.643,3.561a45.155,45.155,0,0,1-3.287,5.341q-2.191,3.15-6.3,8.08a77.513,77.513,0,0,0,2.328,11.5q1.506,5.2,2.876,9.038a74.289,74.289,0,0,0,3.561,8.491q2.465,4.93,5.2,10.134t4.93,10.271a96.526,96.526,0,0,1,3.561,9.449,15.828,15.828,0,0,1,.822,7.4q-.822,4.656-4.793,11.229a73.553,73.553,0,0,1-9.86,12.736,60.607,60.607,0,0,1-13.421,10.545,30.872,30.872,0,0,1-15.749,4.382,19.725,19.725,0,0,1-11.093-3.561,38.943,38.943,0,0,1-14.516-17.8q-1.78-4.656-.411-7.121a39.824,39.824,0,0,1,3.013-5.2,28.62,28.62,0,0,1,4.108-4.382q1.1-.822,2.739-1.917a19.928,19.928,0,0,1,3.834-1.643l5.752-1.917a127.8,127.8,0,0,0,4.93,13.284q2.191,4.793,3.561,7.532A13.937,13.937,0,0,0,268.547,197.747Zm119.963,62.72a43.072,43.072,0,0,1-24.1-6.984,59.365,59.365,0,0,1-18.077-19.035,88.722,88.722,0,0,1-10.819-27.937,130.8,130.8,0,0,1-2.6-33.688,233.093,233.093,0,0,1,5.752-39.029,249.278,249.278,0,0,1,12.6-39.3,262.117,262.117,0,0,1,18.487-36.427,164.667,164.667,0,0,1,23.28-30.128,109.072,109.072,0,0,1,27.252-20.4A65.15,65.15,0,0,1,450.682,0q10.408,0,17.529,5.2A35.162,35.162,0,0,1,479.3,18.761a57.372,57.372,0,0,1,5.067,18.761,92.1,92.1,0,0,1-.137,20.679,88.722,88.722,0,0,1-4.656,19.72A52.531,52.531,0,0,1,471.224,93.4q-6.3,7.943-11.366,8.354a14.48,14.48,0,0,1-9.723-2.876,37.952,37.952,0,0,1-3.834-3.834,47.721,47.721,0,0,1-4.108-4.793,63.441,63.441,0,0,1-4.656-7.258,25.76,25.76,0,0,0,9.586-6.436,47.292,47.292,0,0,0,7.532-10.271,58.147,58.147,0,0,0,6.984-24.924,57.43,57.43,0,0,0-.274-9.723,28.917,28.917,0,0,0-2.191-8.491,15.908,15.908,0,0,0-4.519-6.026A11.163,11.163,0,0,0,447.4,14.79q-10.955,0-21.363,8.354T406.449,45.328a209,209,0,0,0-16.981,31.634,332.122,332.122,0,0,0-13.557,36.7,370.046,370.046,0,0,0-9.312,37.249,247.745,247.745,0,0,0-4.382,33.414q-1.1,18.9,1.369,30.675t6.71,18.487q4.245,6.71,9.175,9.038a21.4,21.4,0,0,0,9.038,2.328q7.669,0,17.255-7.121a87.048,87.048,0,0,0,18.35-19.309,154.332,154.332,0,0,0,15.749-28.073,142.785,142.785,0,0,0,10-33.414q-6.847,0-13.831.137t-13.284.411q-6.3.274-11.229.685a71.889,71.889,0,0,0-7.669.959,5.52,5.52,0,0,1-2.6-1.917,15.518,15.518,0,0,1-1.233-2.465,6.1,6.1,0,0,1-.548-2.739,8.042,8.042,0,0,1,.548-3.013,26.9,26.9,0,0,1,1.369-2.876,19.8,19.8,0,0,1,2.191-3.15q8.765-1.643,17.255-2.739t17.666-1.78q9.175-.685,19.72-1.1t23.691-.685q5.478-.274,6.71,1.369t-.959,8.217a26.373,26.373,0,0,1-4.245,8.49q-2.6,3.287-8.627,2.739a13,13,0,0,1-3.013-.274,136.971,136.971,0,0,1-10.408,34.236,168.3,168.3,0,0,1-19.446,33.414,121.86,121.86,0,0,1-25.335,25.472Q402.752,260.467,388.51,260.467Z" transform="translate(1118 -599.619) rotate(-3)" fill="#f6416c"/></g></svg>